<svg width="29" height="36" viewBox="0 0 29 36" fill="none" xmlns="http://www.w3.org/2000/svg">
<path d="M11.2521 0.875C10.931 0.875 10.623 1.00255 10.396 1.22959C10.169 1.45663 10.0414 1.76456 10.0414 2.08564V29.7575C10.0414 30.0786 10.169 30.3865 10.396 30.6136C10.623 30.8406 10.931 30.9682 11.2521 30.9682C11.5731 30.9682 11.8811 30.8406 12.1081 30.6136C12.3352 30.3865 12.4627 30.0786 12.4627 29.7575V17.1322H27.3363C27.6574 17.1322 27.9653 17.0047 28.1924 16.7776C28.4194 16.5506 28.547 16.2427 28.547 15.9216V2.08564C28.547 1.76456 28.4194 1.45663 28.1924 1.22959C27.9653 1.00255 27.6574 0.875 27.3363 0.875H11.425C11.3957 0.875089 11.3664 0.876243 11.3371 0.878459C11.3088 0.876308 11.2805 0.875155 11.2521 0.875V0.875ZM16.0255 3.29629H19.4153V5.86631H22.8051V3.29629H26.1257V5.86631H22.8051V9.25577H26.1257V12.6456H22.8051V14.7109H19.4153V12.6459H16.0255V14.7109H12.6357V12.6459H16.0255V9.25577H12.6357V5.86597H16.0255V3.29629ZM16.0255 5.86631V9.25577H19.4153V5.86597H16.0255V5.86631ZM19.4153 9.25577V12.6456H22.8051V9.25577H19.4153Z" fill="#235789"/>
<path d="M7.10256 27.4372C3.43811 27.9554 0.875 29.1944 0.875 31.0176C0.875 33.4735 5.15757 35.4648 11.252 35.4648C17.3463 35.4648 21.6289 33.4738 21.6289 31.0176C21.6289 29.194 19.0658 27.9554 15.4017 27.4376L14.8939 28.302C17.6559 28.6849 19.5535 29.4905 19.5535 30.4247C19.5535 31.7347 15.8368 32.7966 11.252 32.7966C6.66707 32.7966 2.95039 31.7347 2.95039 30.4247C2.95004 29.4936 4.83554 28.689 7.60584 28.3044C7.43842 28.0152 7.27032 27.7267 7.10256 27.4372Z" fill="#235789"/>
</svg>
