<svg width="35" height="40" viewBox="0 0 35 40" fill="none" xmlns="http://www.w3.org/2000/svg">
<path d="M34.5625 4.13702H31.9712V2.06459C31.9712 1.06627 31.221 0.25 30.3062 0.25H21.9724C21.0603 0.25 20.3101 1.06627 20.3101 2.06459V4.13702H4.7238L0.875 11.9111H3.54733V17.0937H3.11457L0.95598 19.6851L3.11457 22.2764H3.58749V23.668C3.58749 24.0198 3.85894 24.3042 4.19516 24.3042C5.19996 24.3042 6.01753 25.1619 6.01753 26.2159C6.01753 27.27 5.19996 28.1277 4.19516 28.1277C3.19037 28.1277 2.3728 27.27 2.3728 26.2159C2.3728 25.8642 2.10071 25.5798 1.76513 25.5798C1.4289 25.5798 1.15746 25.8642 1.15746 26.2159C1.15875 27.9742 2.5205 29.4026 4.19516 29.4026C5.86917 29.4026 7.23222 27.9742 7.23222 26.2166C7.23222 24.678 6.18726 23.3901 4.80283 23.0953V22.2764H5.27511L7.43435 19.6851L5.27511 17.0937H4.843V11.9111H20.3101V16.5748C20.3101 17.4352 20.8679 18.1562 21.6058 18.3415V39.1202H23.3063V35.2332L28.9749 37.1767L23.3063 39.1202H30.6755V18.3408C31.414 18.1562 31.9712 17.4352 31.9712 16.5748V11.9111H34.5625V9.96754H33.2163L34.5625 7.41183V4.13702ZM3.88291 9.96754L5.39625 6.85858L7.03269 9.96754H3.88291ZM6.74764 6.08053H9.4381L8.09319 8.63624L6.74764 6.08053ZM9.1537 9.96754L10.4993 7.41183L11.8455 9.96754H9.1537ZM11.5604 6.08053H14.2509L12.9053 8.63624L11.5604 6.08053ZM13.9671 9.96754L15.312 7.41183L16.6569 9.96754H13.9671ZM16.3732 6.08053H19.0637L17.7188 8.63624L16.3732 6.08053ZM20.3101 9.96754H18.7793L20.1242 7.41183L20.3101 7.7649V9.96754ZM28.9749 35.2332L23.3063 33.2897L28.9749 31.3461V35.2332ZM23.3063 31.3461V27.4591L28.9749 29.4039L23.3063 31.3461ZM28.9749 27.4591L23.3063 25.5156L28.9749 23.5721V27.4591ZM23.3063 23.5721V19.6864L28.9749 21.6286L23.3063 23.5721ZM28.9749 19.6864L25.1948 18.3894H28.9749V19.6864ZM29.9467 8.83254C29.9467 9.4564 29.5087 9.96754 28.9749 9.96754H23.1431C22.6093 9.96754 22.1726 9.4564 22.1726 8.83254V3.33241C22.1726 2.70465 22.6093 2.19351 23.1431 2.19351H28.9749C29.5087 2.19351 29.9467 2.70465 29.9467 3.33241V8.83254ZM32.1558 8.63624L31.9712 8.28511V6.08053H33.5007L32.1558 8.63624Z" fill="#235789"/>
</svg>
