<svg width="350" height="499" viewBox="0 0 350 499" fill="none" xmlns="http://www.w3.org/2000/svg">
<path fill-rule="evenodd" clip-rule="evenodd" d="M64.5799 363.831C64.6643 357.578 64.8441 351.326 65.0802 345.076C75.7425 344.116 86.4055 343.155 97.0677 342.195C99.7906 341.949 102.513 341.704 105.235 341.459C108.191 341.193 111.145 340.926 114.1 340.66C114.408 340.632 114.822 340.626 115.284 340.618C116.757 340.593 118.703 340.561 119.14 339.822C119.78 338.742 119.453 335.894 119.205 333.736C119.106 332.876 119.02 332.125 119.013 331.64C118.97 328.948 118.928 326.258 118.885 323.567C118.843 320.876 118.801 318.185 118.758 315.494L118.757 315.452C118.447 295.665 118.137 275.878 117.826 256.091C120.379 256.174 122.932 256.251 125.485 256.322C127.14 256.369 128.796 256.419 130.453 256.469C139.917 256.753 149.408 257.039 158.862 256.748C164.433 256.577 169.712 255.074 174.972 253.301C177.768 252.358 180.537 251.331 183.284 250.252C183.535 250.153 183.93 249.946 184.386 249.707C185.494 249.127 186.963 248.357 187.624 248.484C188.746 248.702 190.406 251.106 191.625 252.87C192.073 253.519 192.462 254.082 192.742 254.417C196.051 258.382 199.36 262.347 202.669 266.312L202.813 266.484C203.233 266.987 203.71 267.498 204.198 268.019C205.271 269.167 206.393 270.367 207.051 271.648C207.551 272.622 207.829 273.845 208.092 275.012C208.217 275.563 208.339 276.101 208.479 276.594C213.939 295.677 219.277 314.884 223.254 334.339C224.11 338.527 224.922 342.743 225.398 346.994C225.434 347.318 225.479 347.666 225.526 348.029C225.786 350.022 226.108 352.496 225.334 354.213C224.366 356.362 221.382 357.331 219.236 358.029C219.096 358.074 218.959 358.119 218.827 358.162C214.631 359.543 210.238 360.365 205.892 361.103C195.42 362.881 184.817 363.913 174.234 364.748C173.029 364.843 171.811 364.902 170.59 364.961C168.536 365.061 166.475 365.161 164.459 365.434C163.607 365.549 163.37 365.473 163.245 365.559C163.144 365.628 163.116 365.801 162.901 366.259C162.434 367.252 162.505 368.994 162.566 370.489C162.594 371.152 162.619 371.767 162.594 372.247C162.5 374.084 162.406 375.922 162.312 377.76C162.218 379.597 162.124 381.435 162.03 383.273C161.516 393.299 161.002 403.325 160.489 413.35C160.316 416.739 160.142 420.127 159.969 423.515C159.622 430.291 159.275 437.068 158.927 443.844C158.831 445.719 158.736 447.594 158.64 449.469C158.538 451.446 158.437 453.422 158.336 455.398C158.302 456.066 158.312 456.796 158.322 457.546C158.343 459.11 158.366 460.761 157.992 462.108C157.788 462.846 157.848 463.116 157.746 463.21C157.64 463.308 157.357 463.214 156.413 463.26C153.553 463.398 150.623 463.213 147.717 463.029C146.274 462.937 144.837 462.846 143.416 462.796C141.074 462.712 138.731 462.628 136.389 462.544C133.875 462.454 131.361 462.365 128.847 462.275C128.507 462.262 128.158 462.277 127.816 462.291C126.761 462.334 125.774 462.375 125.352 461.624C124.871 460.769 124.988 458.858 125.081 457.332C125.12 456.697 125.155 456.129 125.141 455.731L124.736 444.427L123.627 413.397C123.384 406.595 123.14 399.795 122.897 392.993C122.635 385.687 122.373 378.381 122.112 371.075C116.715 372.161 111.318 373.247 105.921 374.334L105.91 374.336C97.9305 375.942 89.95 377.548 81.9694 379.153C80.9824 379.352 79.9452 379.62 78.8834 379.894C76.0061 380.635 72.9435 381.425 70.1835 381.029C66.4297 380.49 64.8778 378.887 64.667 375.324C64.4646 371.903 64.514 368.459 64.5634 365.031C64.5689 364.631 64.5744 364.231 64.5799 363.831ZM173.479 303.275L172.139 300.694L171.557 303.542L165.883 331.294L165.613 332.617L166.96 332.528L186.376 331.241L187.948 331.137L187.221 329.74L173.479 303.275ZM168.171 330.384L172.992 306.804L184.669 329.291L168.171 330.384Z" fill="#F2AF29"/>
<path fill-rule="evenodd" clip-rule="evenodd" d="M334.741 78.6801C334.344 81.7667 334.627 85.132 331.142 85.9461C327.917 86.6998 324.379 86.4883 321.091 86.7519C317.397 87.0491 313.713 87.4541 310.025 87.8199C305.377 88.2805 306.04 86.4938 305.024 82.5238C304.095 78.8983 302.613 75.2804 301.38 71.7448C300.807 70.1016 300.123 68.5895 299.342 67.0411C298.634 65.6388 298.971 63.732 298.208 62.5535C295.605 58.5327 282.913 69.5271 281.733 67.3602C283.881 65.6882 287.599 63.8171 288.257 60.9563C289.032 57.5937 286.895 56.5895 284.21 57.8188C277.604 60.8458 269.978 63.211 262.773 64.3141C265.104 62.7567 286.181 50.4793 279.107 46.8375C277.513 46.0168 275.384 47.5617 273.946 48.1461C271.664 49.0742 269.28 49.6962 266.899 50.3042C264.389 50.9448 261.872 51.5611 259.348 52.1437C257.578 52.5524 254.423 54.0041 252.698 53.6458C250.947 53.2818 254.05 52.1947 254.557 51.9387C256.772 50.8229 258.951 49.624 261.112 48.4099C264.948 46.2557 268.491 43.7603 271.408 40.4296C273.609 37.9164 277.245 32.4282 275.712 28.9531C274.824 26.9388 272.878 25.077 271.734 23.1687C270.399 20.9396 269.322 18.5638 268.162 16.2415C270.103 17.0948 272.281 17.3132 274.262 18.079C276.242 18.8454 278.254 19.4656 280.315 20.0353C284.449 21.1779 288.571 21.381 292.668 22.3077C297.306 23.3564 302.138 24.529 306.85 25.1351C310.953 25.6621 314.641 26.7849 318.156 29.0215C325.335 33.5906 330.314 40.1544 332.833 48.2713C334.308 53.0263 334.667 57.9877 334.841 62.9351C335.024 68.1509 335.409 73.4869 334.741 78.6801ZM294.456 79.0637C289.443 82.718 283.6 85.5734 278.221 88.682C275.142 90.4597 271.999 92.1222 268.859 93.7887C266.631 94.9713 263.924 97.1486 261.471 97.7553C259.92 98.139 260.036 98.1685 259.053 96.7539C258.115 95.4031 257.296 93.9486 256.418 92.5573C254.798 89.9923 253.163 87.4369 251.529 84.8815C247.864 79.1537 244.206 73.4265 240.356 67.8201C236.493 62.1945 232.788 56.4653 229.045 50.7603C227.306 48.1078 225.577 45.4451 223.732 42.8656C222.322 40.8959 218.709 37.8915 220.425 35.5724C222.019 33.4182 225.65 31.6286 227.797 29.998C230.422 28.0073 233.061 26.037 235.679 24.036C241.305 19.7345 246.784 15.2458 252.405 10.9386C257.175 19.3059 262.788 27.1502 268.449 34.9293C263.329 38.1961 258.158 41.3014 252.763 44.0982C248.78 46.1637 242.684 48.9548 240.168 52.873C237.688 56.7316 240.123 61.1828 244.543 61.2535C247.185 61.296 249.819 60.5959 252.411 60.1965C254.28 59.9075 257.696 58.5594 259.382 59.5094C256.351 61.4436 245.354 67.0795 251.282 72.0215C255.519 75.5536 262.682 70.3988 267.26 71.46C265.864 74.1376 264.414 78.4082 268.287 79.8641C271.509 81.0762 275.727 78.8173 278.628 77.6196C280.723 76.7541 282.806 75.859 284.866 74.9146C286.505 74.163 288.467 72.6399 290.218 72.3159C292.261 71.937 296.421 77.6306 294.456 79.0637ZM201.272 276.398C204.139 275.875 205.612 274.689 206.516 278.172C207.325 281.291 208.126 284.295 209.169 287.356C204.689 287.743 200.738 289.882 197.47 292.891C195.144 295.035 190.517 300.152 191.665 303.742C194.451 312.467 208.525 292.895 210.198 290.803C212.245 293.795 212.998 297.713 214.016 301.135C214.74 303.571 217.428 308.239 213.875 308.831C208.886 309.663 199.527 311.52 200.119 318.585C200.818 326.924 211.427 326.877 217.378 327.252C220.733 327.463 220.749 330.151 221.227 333.16C221.44 334.506 222.108 336.325 220.965 337.31C219.951 338.184 216.844 338.209 215.524 338.492C211.674 339.318 207.827 340.16 203.979 340.986C199.609 341.924 197.299 340.61 193.214 339.413C191.702 338.971 190.183 339.157 190.072 337.465C190.003 336.426 191.02 334.819 191.353 333.791C192.671 329.726 193.794 325.54 194.172 321.271C194.724 315.067 194.035 305.766 186.397 304.555C182.763 303.98 182.064 303.792 180.423 300.382C178.649 296.694 175.831 293.278 176.513 289.03C177.005 285.951 176.174 280.126 178.139 277.572C179.047 276.392 180.818 275.688 182.027 274.821C183.567 273.716 185.05 272.534 186.486 271.297C187.693 270.257 189.164 268.224 190.533 267.473C192.206 266.555 192.257 267.181 193.458 268.614C195.231 270.733 198.049 276.986 201.272 276.398ZM209.378 290.181C208.384 292.186 206.087 294.052 204.624 295.726C203.152 297.41 201.76 299.19 200.118 300.717C198.311 302.397 191.895 306.455 193.308 300.992C194.408 296.744 198.525 293.302 202.148 291.182C202.85 290.771 211.059 286.786 209.378 290.181ZM216.397 310.409C217.034 313.253 217.376 316.184 217.919 319.048C218.197 320.513 219.737 324.051 219.109 325.459C218.046 327.846 208.472 325.021 206.488 324.199C201.764 322.244 199.595 317.223 203.952 313.648C205.604 312.294 215.761 307.566 216.397 310.409ZM222.674 344.565C223.207 347.28 224.766 349.798 222.188 351.85C220.047 353.554 216.539 354.717 213.9 355.324C210.304 356.15 209.148 354.136 207.244 351.544C205.198 348.756 203.018 346.064 200.758 343.447C207.857 341.858 214.956 340.268 222.057 338.679C222.052 340.657 222.292 342.627 222.674 344.565ZM205.662 357.166C201.96 356.975 197.977 358.089 194.222 358.382C189.532 358.748 184.857 359.281 180.163 359.595C181.366 355.759 183.525 352.337 185.215 348.713C186.91 345.077 188.1 344.683 191.999 344.403C195.612 344.143 198.16 342.9 200.826 345.965C203.6 349.153 206.113 352.617 208.645 355.996C207.784 356.572 206.754 357.223 205.662 357.166ZM179.198 357.949C178.284 358.614 175.467 356.723 174.518 356.356C172.671 355.642 172.262 355.412 171.298 353.611C170.47 352.063 169.152 350.303 168.894 348.535C168.551 346.204 169.582 343.136 169.957 340.821C170.958 343.232 174.238 343.512 176.456 343.906C178.133 344.204 183.101 343.729 184.365 344.923C185.762 346.242 183.191 349.922 182.52 351.308C181.721 352.962 180.733 356.83 179.198 357.949ZM177.407 359.861C176.309 360.039 173.144 361.132 173.207 359.124C173.279 356.83 177.632 359.305 177.407 359.861ZM171.833 359.741C171.632 361.671 167.476 361.512 167.381 359.813C167.219 356.942 172.152 356.656 171.833 359.741ZM167.08 307.658C166.018 310.684 159.546 311.767 157.061 312.698C154.791 313.549 148.011 317.477 145.67 316.052C153.593 310.607 161.711 305.272 168.423 298.32C168.698 300.037 168.279 301.472 167.773 303.097C167.316 304.564 167.551 306.317 167.08 307.658ZM165.11 318.693C163.97 326.106 162.851 333.616 161.309 340.954C158.369 340.056 155.945 338.236 152.856 337.601C150.038 337.023 147.127 337.008 144.285 337.431C138.229 338.332 132.831 341.327 127.548 344.246C127.06 339.163 126.05 333.723 126.169 328.621C126.268 324.384 133.519 323.129 136.809 321.379C138.798 320.32 140.597 318.83 142.865 318.461C145.198 318.081 147.449 318.092 149.753 317.381C155.202 315.7 160.329 313.035 165.667 311.049C166.103 313.593 165.497 316.186 165.11 318.693ZM160.019 350.064C159.777 351.749 160.082 354.756 158.798 356.04C157.59 357.25 155.007 357.29 153.412 357.618C148.555 358.617 143.702 359.626 138.852 360.657C136.682 361.118 134.511 361.559 132.332 361.971C131.293 362.167 128.686 363.164 127.811 362.337C126.98 361.551 127.599 359.043 127.643 357.99C127.733 355.887 127.852 353.778 127.72 351.675C127.467 347.64 127.691 346.095 131.447 344.008C135.436 341.79 139.556 340.272 144.046 339.45C148.592 338.618 152.923 339.073 157.25 340.818C158.454 341.304 160.26 341.902 160.821 343.2C161.583 344.967 160.276 348.274 160.019 350.064ZM154.551 415.096C152.77 416.213 148.896 416.022 146.85 416.249C143.548 416.614 140.225 416.406 136.944 415.896C134.474 415.513 130.788 414.981 128.896 413.248C126.206 410.784 129.31 410.671 131.368 410.845C137.352 411.348 143.41 410.996 149.388 410.564C150.552 410.479 153.68 409.458 154.802 409.937C156.237 410.547 155.797 414.314 154.551 415.096ZM151.158 454.909C140.01 453.826 133.547 444.594 129.504 435.157C127.334 430.09 128.116 424.774 127.902 419.416C127.864 418.437 127.249 416.009 128.255 415.278C129.2 414.591 133.025 416.715 134.059 416.968C139.361 418.268 145.226 418.392 150.54 417.13C152.842 416.583 154.131 415.566 154.863 417.848C155.451 419.685 154.485 423.07 154.379 424.996C154.197 428.327 154.719 455.254 151.158 454.909ZM128.888 454.919C128.845 453.302 128.03 436.961 128.821 436.912C131.173 441.986 133.589 446.524 137.87 450.257C140.058 452.164 142.517 453.883 145.252 454.907C146.28 455.291 152.103 455.583 152.389 456.858C152.888 459.09 148.913 458.189 147.734 458.008C146.787 457.862 145.936 457.458 145.008 457.29C143.239 456.969 141.569 457.401 139.793 457.436C137.095 457.491 134.445 457.208 131.745 457.442C129.278 457.655 128.954 457.371 128.888 454.919ZM130.534 381.625C140.077 378.541 148.053 384.382 153.09 392.029C155.961 396.389 156.604 399.438 156.101 404.601C155.922 406.45 156.254 407.701 154.554 408.454C152.873 409.2 149.052 408.647 147.231 408.732C141.998 408.976 136.784 409.302 131.55 408.991C128.151 408.79 127.671 408.214 127.729 404.914C127.8 400.941 127.469 396.987 127.245 393.008C127.001 388.703 125.523 383.244 130.534 381.625ZM127.411 375.904C127.416 372.984 127.241 369.99 127.42 367.075C127.597 364.186 128.827 364.329 131.554 363.836C137.461 362.768 143.36 361.573 149.188 360.126C151.492 359.553 154.097 358.454 156.497 358.445C159.017 358.437 158.883 359.732 158.715 361.962C158.342 366.904 157.436 371.772 157.161 376.687C156.864 381.993 156.708 387.366 156.732 392.677C156.74 394.47 157.176 395.797 155.648 394.12C154.118 392.439 153.369 389.761 152.002 387.872C149.204 384.005 145.044 380.894 140.429 379.584C137.877 378.86 135.193 378.734 132.591 379.259C131.801 379.417 127.847 381.305 127.344 380.932C127.004 380.679 127.41 376.022 127.411 375.904ZM162.324 477.066C166.11 479.777 170.301 481.967 174.545 483.868C176.932 484.938 186.384 487.189 186.685 489.597C186.847 490.882 185.28 492.321 184.254 492.473C182.953 492.665 180.808 491.816 179.483 491.654C174.663 491.07 169.852 491.066 165.149 489.724C155.758 487.044 146.023 486.289 136.535 483.953C134.277 483.397 132.015 482.876 129.746 482.373C127.59 481.894 126.625 481.976 126.549 479.673C126.381 474.618 127.831 469.439 127.842 464.321C135.518 465.197 143.22 465.186 150.916 465.907C154.215 466.216 154.138 466.84 155.583 469.722C157.084 472.712 159.636 475.141 162.324 477.066ZM124.899 312.833C124.802 310.961 124.726 309.085 124.557 307.219C124.443 305.965 123.298 302.461 123.944 301.484C124.711 300.325 125.484 301.032 126.857 300.999C128.666 300.957 130.182 300.229 131.674 299.277C134.5 297.475 136.601 295.102 138.435 292.333C140.048 289.896 139.748 286.566 139.728 283.648C139.677 276.102 140.227 268.742 139.766 261.162C139.555 257.681 142.527 259.816 144.926 260.267C148.852 261.005 153.118 260.494 157.108 260.503C156.959 261.431 148.802 263.735 147.484 264.612C144.11 266.856 142.142 270.446 142.45 274.539C143.069 282.772 152.138 284.149 158.763 284.164C153.266 289.025 147.867 293.66 143.546 299.657C140.361 304.078 134.749 312.796 139.958 317.687C135.354 320.302 130.791 323.211 125.584 324.469C125.351 320.591 125.101 316.713 124.899 312.833ZM122.809 162.529C124.684 163.733 125.472 162.031 126.898 161.15C128.907 159.907 129.572 160.029 129.827 157.256C130.298 152.111 128.134 147.454 125.417 143.245C124.182 141.331 122.95 139.052 121.206 137.557C119.617 136.193 118.011 136.662 116.538 135.252C115.96 134.698 116.084 133.916 115.129 133.938C114.499 133.953 112.97 135.902 112.45 136.333C110.808 137.692 108.8 138.726 106.649 137.605C103.516 135.974 104.522 130.054 106.955 128.136C108.829 126.659 111.043 126.887 113.176 126.649C114.775 126.471 115.108 126.54 114.45 124.71C113.989 123.428 112.926 122.428 112.401 121.174C111.392 118.767 111.611 115.841 111.176 113.294C110.784 111.011 109.869 108.542 109.902 106.223C109.946 103.271 110.91 102.504 113.467 101.677C115.945 100.875 117.998 99.1075 120.108 97.6228C122.497 95.9419 125.113 94.832 127.569 93.2973C129.235 92.2546 130.311 90.1474 132.143 91.1317C134.321 92.3013 136.624 95.6872 138.476 97.4169C135.766 99.137 135.136 99.8893 135.509 103.257C135.852 106.343 136.48 109.094 138.84 111.245C139.747 112.071 141.438 112.733 142.14 113.686C142.96 114.795 142.427 113.817 142.324 115.07C142.269 115.746 141.734 116.188 141.85 116.969C142.37 120.438 146.355 118.391 147.998 117.185C153.866 112.88 142.909 109.46 140.307 107.892C138.51 106.807 137.621 103.349 140.468 104.268C142.363 104.879 146.641 110.061 147.076 105.337C151.772 108.065 154.67 113.861 158.608 117.526C161.448 120.169 165.263 123.101 163.008 127.321C160.136 132.702 154.44 135.144 149.24 137.465C144.197 139.717 145.244 146.088 147.94 149.988C149.498 152.242 151.54 153.564 153.998 154.659C156.507 155.779 157.029 157.094 157.576 159.69C158.185 162.571 157.539 163.732 155.044 165.22C152.609 166.674 150.063 168.081 147.463 169.219C141.841 171.679 136.009 171.835 130.029 172.673C127.934 172.966 125.924 173.579 124.78 171.501C123.495 169.162 123.4 165.136 122.809 162.529ZM121.905 151.34C120.498 150.598 117.101 153.061 115.322 153.17C112.444 153.344 110.555 153.278 108 154.805C103.171 157.69 99.1639 161.405 95.2914 165.434C90.9301 169.972 86.5935 174.533 82.2467 179.085C80.2761 181.146 78.2959 183.197 76.2951 185.227C74.7178 186.828 73.1755 189.079 71.2234 190.221C71.325 188.864 72.1569 187.904 72.452 186.647C72.6236 185.912 72.3237 185.288 72.4349 184.583C72.4712 184.355 73.0848 183.561 73.1782 183.3C73.4273 182.612 73.7321 181.933 74.0279 181.218C74.3039 180.552 74.2634 179.86 74.5434 179.164C74.831 178.446 75.6197 177.971 75.8928 177.264C76.6945 175.195 75.3678 174.235 73.2461 174.284C74.076 170.144 74.4391 168.118 78.7681 166.659C82.9042 165.264 86.945 163.697 90.7441 161.518C94.1177 159.583 96.9318 156.793 100.175 154.637C103.078 152.705 106.693 150.682 106.663 146.721C108.309 147.838 109.852 148.778 111.734 147.666C113.324 146.727 113.535 145.972 115.372 145.795C116.872 145.651 117.801 145.613 119.14 146.272C120.715 147.048 120.93 147.587 121.848 145.304C122.89 146.181 125.525 149.836 125.437 151.283C125.389 152.08 125.268 152.439 124.281 152.649C122.881 152.947 122.935 151.882 121.905 151.34ZM115.343 367.657C114.658 368.706 111.771 368.513 110.657 368.499C107.258 368.454 106.07 365.602 104.58 362.847C102.229 358.501 98.7157 349.476 102.572 344.915C105.616 341.316 111.544 345.851 113.621 348.569C115.414 350.918 114.881 354.44 115.048 357.258C115.189 359.633 116.696 365.586 115.343 367.657ZM106.059 369.231C104.7 370.589 100.291 370.301 98.4906 370.594C95.2777 371.113 92.0825 371.739 88.965 372.688C86.6443 373.394 84.3504 375.295 83.7389 372.06C83.2248 369.34 83.4808 366.078 83.5295 363.333C83.5824 360.371 83.8926 357.447 84.15 354.499C84.3244 352.505 83.8878 348.837 85.5159 347.307C86.9182 345.988 90.3288 345.861 92.1498 345.424C95.1404 344.707 98.2648 343.765 101.373 344.086C99.5593 349.008 99.4056 354.171 101.35 359.076C101.905 360.476 106.898 368.391 106.059 369.231ZM83.2069 349.621C82.4492 357.025 81.6873 364.476 82.4169 371.918C82.4608 372.361 82.9914 374.394 82.7608 374.712C82.5226 375.042 80.6351 375.212 80.2068 375.313C78.5052 375.717 76.8057 376.145 75.0932 376.504C71.7601 377.2 71.325 375.094 70.6708 372.005C69.2699 365.386 71.986 358.21 73.6319 351.853C74.4336 348.758 75.0273 348.401 78.0714 348.144C80.1896 347.966 83.5289 346.475 83.2069 349.621ZM70.3359 377.245C69.062 378.403 67.7887 372.937 67.6762 372.38C67.2314 370.168 67.4792 367.924 67.4854 365.677C67.4963 362.167 67.2279 358.674 67.2225 355.181C67.2197 353.291 65.8037 349.429 68.0399 348.429C68.6961 348.136 71.3023 348.258 71.8933 348.644C73.1219 349.446 72.638 349.966 72.2735 351.361C71.4588 354.494 70.7539 357.641 70.0442 360.799C69.3482 363.895 68.6611 366.875 68.9926 370.073C69.1018 371.13 71.1472 376.506 70.3359 377.245ZM110.959 342.746C114.064 341.871 114.23 344.25 114.225 346.526C113.752 346.164 109.339 343.202 110.959 342.746ZM69.4237 175.612C68.6625 176.866 63.8434 177.209 62.4665 177.539C59.7574 178.188 57.0468 178.832 54.3445 179.508C49.2825 180.774 44.3446 182.202 39.1549 182.864C42.0048 178.302 42.8916 174.362 42.361 168.668C41.6925 161.478 40.842 154.363 39.1871 147.326C37.5556 140.387 35.6667 133.494 33.8471 126.601C32.9534 123.215 31.987 119.893 30.7982 116.598C29.8455 113.957 28.3567 110.633 29.9745 107.925C34.0791 110.92 37.3717 114.147 39.7129 118.696C42.221 123.573 44.4112 128.579 47.3222 133.245C48.6531 135.379 50.2077 137.324 51.6313 139.389C52.4783 140.617 53.0953 142.39 54.1743 143.427C55.4181 144.621 56.7441 145.184 57.4552 143.168C58.2178 141.005 55.7846 136.725 55.0666 134.693C53.3321 129.789 51.6128 124.894 50.275 119.864C49.1933 115.797 47.4045 110.88 48.0374 106.59C48.664 102.342 51.5462 105.382 53.0047 107.357C56.0111 111.429 57.8115 116.174 59.7869 120.79C61.6024 125.031 63.7198 129.074 65.7289 133.217C66.4276 134.658 67.3488 138.382 69.1793 138.81C71.8404 139.434 71.6153 135.686 71.3607 134.166C69.6742 124.085 65.2718 114.433 64.3582 104.178C64.3143 103.688 63.678 99.8776 64.19 99.5591C65.1818 98.9421 66.5203 102.808 66.9479 103.755C69.1745 108.681 70.7244 113.874 72.1473 119.078C73.3573 123.504 74.4514 127.962 75.8091 132.346C76.5552 134.755 77.4104 137.125 78.254 139.502C79.0166 141.655 79.7908 145.334 81.7799 146.753C84.6023 148.765 94.7011 143.98 95.7245 148.258C96.4527 151.299 87.0884 153.748 85.0938 154.671C82.4684 155.886 79.8931 157.217 77.2663 158.434C75.2779 159.355 72.4197 159.732 70.9811 161.464C69.4573 163.299 69.213 165.875 69.1677 168.151C69.1327 169.874 70.3263 174.126 69.4237 175.612ZM63.041 208.815C62.9079 209.771 62.148 211.037 61.8062 211.946C61.1109 213.799 60.5192 216.012 59.5514 217.743C58.7195 219.234 57.4909 220.567 56.6865 222.08C55.9239 223.516 55.8223 225.171 54.9314 226.609C53.9114 228.252 52.2264 229.433 51.214 231.065C50.715 231.871 50.1995 232.791 49.4946 233.648C46.9975 236.687 44.5183 239.553 42.5099 242.808C41.9965 243.641 39.4878 247.278 38.4898 247.475C36.4025 247.885 38.8316 244.918 39.24 244.305C42.197 239.867 44.8231 235.195 47.677 230.688C50.4418 226.325 53.271 221.995 55.9315 217.566C58.1018 213.955 59.6022 208.771 63.1289 206.227C63.1419 207.092 63.1138 207.955 63.041 208.815ZM159.461 168.031C161.178 175.093 163.232 181.935 165.169 188.934C166.965 195.427 169.356 202.376 170.102 209.07C170.839 215.701 172.534 222.411 174.814 228.705C175.868 231.617 176.952 234.54 178.097 237.419C178.725 239 179.427 240.546 180.141 242.091C180.695 243.29 182.159 245.234 182.215 246.505C182.259 247.523 182.613 247.116 181.608 247.882C180.568 248.674 178.765 248.386 177.554 248.525C174.393 248.891 171.31 250.08 168.229 250.85C162.286 252.336 155.203 253.515 149.113 252.481C146.552 252.046 143.891 251.669 141.359 251.103C138.242 250.405 137.601 249.116 136.962 246.053C135.563 239.356 134.358 232.677 133.203 225.936C131.83 217.917 130.343 209.907 129.283 201.839C128.213 193.677 127.444 185.506 125.766 177.432C132.533 178.564 138.905 179.842 145.692 177.988C151.702 176.346 156.04 173.137 159.461 168.031ZM185.949 255.454C187.462 258.571 183.815 261.374 182.049 263.776C179.718 266.942 177.542 270.249 174.831 273.112C174.018 269.858 173.305 266.197 171.135 263.525C168.364 260.113 165.13 261.507 161.736 259.893C165.296 258.161 169.841 258.822 173.618 257.277C177.343 255.754 181.104 254.559 184.571 252.58C185.031 253.537 185.485 254.498 185.949 255.454ZM172.746 328.198C170.471 328.324 171.993 323.526 172.141 322.333C172.547 319.056 172.958 315.779 173.314 312.496C175.191 317.446 177.068 322.396 178.944 327.346C176.882 327.641 174.832 328.082 172.746 328.198ZM169.045 351.929C169.355 352.619 170.803 354.917 169.66 355.342C168.094 355.922 167.906 352.114 169.045 351.929ZM166.331 298.599C159.082 304.386 151.884 310.188 144.042 315.17C142.324 316.262 140.593 316.718 139.454 314.554C138.56 312.852 139.505 310.934 140.079 309.268C141.543 305.02 144.094 301.327 146.92 297.87C152.566 290.966 159.286 285.069 167.859 282.347C169.262 281.901 171.428 280.557 171.918 282.413C172.208 283.505 170.984 286.231 170.735 287.255C169.711 291.486 169.935 295.723 166.331 298.599ZM187.195 340.803C187.355 345.717 173.922 341.754 172.248 340.875C174.004 340.286 187.123 338.595 187.195 340.803ZM192.183 340.834C192.981 341.047 196.042 341.317 194.899 342.363C193.876 343.3 189.241 342.924 188.013 343.039C188.838 340.328 189.465 340.111 192.183 340.834ZM189.695 334.252C189.394 335.345 189.272 337.013 188.293 337.762C187.072 338.696 184.478 338.129 183.096 338.136C180.749 338.148 178.405 338.269 176.07 338.502C175.176 338.59 171.557 339.681 170.719 338.937C170.104 338.391 170.333 335.826 170.781 335.25C171.701 334.065 173.819 334.476 175.146 334.428C180.004 334.255 184.835 334.24 189.695 334.252ZM186.576 316.089C185.891 315.07 185.768 315.08 185.476 313.542C185.163 311.894 184.368 310.485 183.901 308.893C182.872 305.392 186.158 305.702 188.569 306.987C194.823 310.318 193.314 321.961 191.767 327.411C189.519 325.758 188.689 325.008 187.915 322.341C187.621 321.327 187.291 320.332 186.986 319.324C186.761 318.582 186.917 316.596 186.576 316.089ZM187.118 259.426C188.864 259.215 190.461 264.633 189.963 265.805C188.941 268.203 185.041 270.346 183.054 271.876C181.731 272.895 180.417 274.064 179.003 274.953C177.691 275.777 176.936 275.314 175.715 275.71C173.949 276.282 173.52 278.151 171.713 278.954C169.169 280.085 166.086 280.401 163.43 281.422C160.207 282.66 157.252 282.694 153.872 282.107C149.012 281.263 143.314 278.852 143.753 272.946C144.525 262.525 165.219 257.186 170.863 266.021C172.332 268.321 172.31 271.002 173.263 273.472C174.296 276.145 175.298 275.095 176.851 273.126C178.884 270.549 180.772 267.835 182.725 265.197C183.357 264.344 185.857 259.58 187.118 259.426ZM60.2927 360.885C60.1932 362.657 60.2996 364.455 59.6832 366.146C59.0621 367.851 57.8032 369.23 57.0784 370.888C55.6082 374.246 55.6192 378.31 55.6782 381.909C55.8148 390.283 57.7977 398.416 58.8465 406.689C55.3556 406.681 51.7466 406.72 48.3634 405.722C45.3413 404.831 44.8587 402.622 44.0042 399.838C41.6039 392.021 39.0121 384.238 38.2372 376.051C37.8686 372.15 37.7135 368.217 37.5371 364.303C37.3833 360.87 38.1542 359.372 41.2532 357.673C47.99 353.977 54.9733 350.901 61.6408 347.03C60.9592 351.622 60.5522 356.25 60.2927 360.885ZM347.884 86.5254C346.244 86.2241 344.588 86.036 342.933 85.8383C342.069 85.7354 339.378 85.8788 338.731 85.316C337.962 84.6461 339.294 79.5806 339.362 78.4934C339.779 71.9569 339.295 65.218 338.695 58.7063C337.611 46.9174 333.903 35.9959 325.349 27.5072C321.091 23.2817 316.304 19.9293 310.49 18.3115C307.102 17.3688 303.611 16.8662 300.216 15.9522C297.478 15.2139 294.922 14.3689 292.077 14.0764C286.402 13.4927 281.215 11.3486 275.677 10.1082C271.603 9.19563 265.05 7.03112 262.409 11.6315C260.33 9.19302 258.239 7.36195 255.616 5.54297C253.104 3.80066 252.694 2.06027 249.618 4.07212C243.642 7.98148 238.045 12.7505 232.464 17.1982C227.25 21.3522 222.206 25.7023 216.743 29.5222C211.171 33.4188 212.228 40.0311 214.848 45.5129C219.778 55.8311 227.382 64.6518 234.038 73.4958C238.207 79.0363 242.39 84.5843 246.543 90.1358C250.513 95.4415 253.947 101.583 258.585 106.35C261.511 109.354 265.002 105.425 267.641 103.609C270.917 101.354 274.136 99.0148 277.416 96.7662C284.247 92.0824 291.556 87.695 298.767 83.6179C299.291 85.1046 299.816 86.5913 300.34 88.0787C298.756 88.1974 296.617 87.8433 295.811 89.5462C294.659 91.978 297.485 92.2972 297.98 93.6919C298.423 94.937 296.609 98.2262 296.072 99.3484C294.865 101.877 293.18 104.057 291.324 106.138C283.98 114.375 274.686 120.267 265.258 125.883C255.167 131.892 244.352 135.561 233.306 139.432C227.688 141.401 221.858 142.316 216.062 143.576C210.477 144.791 204.896 146.387 199.188 146.845C187.512 147.782 175.12 148.484 163.584 145.966C162.321 145.691 160.985 145.094 159.701 144.98C158.671 144.889 157.908 145.321 156.936 145.377C154.848 145.496 153.652 143.629 151.993 145.363C151.164 146.231 151.149 147.688 149.993 146.068C148.522 144.009 152.282 143.61 153.675 143.024C158.366 141.048 162.137 137.07 165.118 133.048C168.096 129.03 168.524 124.739 166.711 120.035C164.897 115.332 160.774 112.145 157.679 108.326C156.182 106.476 154.803 104.52 153.16 102.794C152.282 101.872 150.867 100.99 150.812 100.059C150.748 98.9784 151.396 98.4417 151.008 97.128C150.908 96.7861 150.479 96.5919 150.388 96.2164C150.243 95.6179 150.467 95.1045 150.391 94.5211C150.218 93.184 149.693 92.3439 148.951 91.2484C148.489 90.5634 147.812 89.1927 147.176 88.68C146.06 87.7808 144.539 88.1473 143.405 87.2358C141.611 85.7944 140.98 82.7572 139.393 81.0069C137.159 78.5442 136.682 81.0323 134.314 80.2477C132.29 79.5758 132.313 76.5296 130.678 75.4994C128.374 74.0483 126.433 76.7184 124.387 77.3128C121.695 78.0953 122.73 75.058 120.33 74.7814C118.164 74.5316 115.162 78.9265 114.082 80.4873C112.981 79.2045 111.777 77.0183 109.796 77.8015C107.717 78.6238 107.347 82.451 105.827 83.8163C105.297 84.2912 105.409 84.6413 104.758 84.8602C103.916 85.1417 102.796 83.9206 101.708 84.2926C99.5133 85.0442 99.781 87.9723 99.7769 89.8695C97.1879 89.4913 95.382 89.2984 94.5151 92.0885C93.6667 94.8196 93.3448 93.6144 90.6151 94.5019C88.2621 95.2658 87.9327 97.5007 87.5442 99.6861C87.304 101.045 87.5263 101.6 87.8922 102.839C88.3534 104.4 88.3534 104.381 87.6012 105.87C86.2908 108.47 86.2126 111.334 86.0033 114.195C85.7809 117.247 85.2469 120.026 86.1145 123.008C86.6505 124.853 86.6917 127.364 88.4989 128.397C89.2155 128.807 90.4332 128.582 91.0434 128.988C92.2075 129.764 91.8533 130.944 92.6289 132.076C93.2096 132.924 94.1472 133.006 94.7979 133.693C95.5055 134.441 95.5481 135.352 95.951 136.265C97.1439 138.968 98.2662 140.275 94.3771 140.43C91.9775 140.525 89.418 141.245 87.028 141.023C84.2084 140.764 83.5069 139.187 82.6091 136.787C78.0852 124.692 75.654 111.582 69.6962 100.08C68.3879 97.5542 63.0184 87.2372 60.7485 94.7544C58.8349 101.095 61.3456 108.832 62.3086 115.143C59.2879 112.421 58.1704 107.516 55.8765 104.192C54.1826 101.736 48.8775 95.7058 45.7675 99.1617C43.3171 101.885 43.9294 107.661 44.3817 110.917C45.0962 116.069 46.7429 121.034 47.9186 126.087C46.4381 124.15 45.7078 121.786 44.6803 119.605C43.3919 116.87 41.7844 114.276 39.9525 111.873C38.3518 109.773 36.5617 107.821 34.6207 106.031C33.1374 104.662 30.4811 101.665 28.3746 101.503C22.9528 101.087 24.6578 111.032 25.4835 113.875C27.1954 119.768 29.0507 125.499 30.3795 131.51C32.9768 143.256 36.1225 154.73 38.0361 166.625C38.4596 169.262 38.9696 171.367 37.927 173.903C37.0072 176.136 36.0538 178.807 34.3578 180.524C30.5188 184.413 27.3313 188.566 24.4615 193.252C21.3879 198.271 18.2237 203.348 15.7149 208.675C14.5611 211.126 13.6173 213.778 12.2913 216.136C11.0942 218.263 9.65555 219.945 8.80444 222.301C4.73831 233.56 1.72784 244.621 0.349583 256.542C-0.782262 266.329 0.27202 279.348 12.0888 281.638C17.5174 282.69 22.3914 280.283 27.2867 278.296C32.3494 276.242 36.0106 272.901 40.1399 269.351C45.2712 264.94 50.5989 260.802 55.7846 256.465C60.9729 252.125 65.7653 247.312 70.9255 242.926C76.0219 238.592 80.633 233.99 85.0403 228.958C89.4132 223.966 92.9645 218.436 97.1975 213.374C97.1817 219.927 96.2091 226.421 95.9359 232.966C95.6867 238.966 95.6806 244.96 95.9229 250.958C96.1652 256.952 94.5816 262.657 94.5686 268.638C94.5549 274.473 94.3236 280.273 94.1959 286.101C94.1389 288.716 93.6262 291.649 94.6029 294.171C95.3326 296.055 97.6251 296.644 99.5813 297.151C102.604 297.935 111.698 296.425 113.048 299.654C113.785 301.416 113.043 304.624 113.1 306.571C113.196 309.78 113.314 312.988 113.424 316.197C113.537 319.51 113.648 322.824 113.769 326.136C113.876 329.055 114.444 332.307 114.092 335.197C113.791 337.674 112.347 337.35 110.058 337.477C106.603 337.668 103.148 337.822 99.6911 337.972C94.6208 338.194 89.3302 338.093 84.4692 338.691C82.4279 338.943 80.1972 338.835 78.044 339.245C75.3431 339.759 72.8487 339.889 70.1094 340.025C67.9013 340.134 65.0624 339.974 63.3272 341.606C62.726 342.173 62.5907 342.848 62.1645 343.478C61.3649 344.659 61.8096 344.349 60.498 344.614C55.3762 345.652 50.5118 346.822 45.5033 348.568C42.9959 349.441 40.6698 350.615 38.1507 351.437C35.9433 352.158 34.3255 353.044 33.2342 355.211C31.2848 359.082 31.7783 364.681 31.9197 368.852C32.1421 375.36 33.5876 381.555 35.1464 387.849C36.7683 394.396 38.0402 401.119 41.1955 407.133C42.232 409.11 43.3514 411.632 45.4689 412.662C48.2028 413.992 52.4076 413.186 55.3913 413.191C57.3935 413.194 62.7575 413.882 64.2545 412.203C65.7035 410.577 64.2456 405.991 64.0411 403.973C63.3238 396.902 62.0327 389.765 62.0499 382.646C63.6835 385.059 66.5155 389.226 69.3502 385.528C70.0476 384.618 69.7751 384.195 71.014 383.667C71.699 383.376 73.1439 383.196 73.89 383.247C74.9051 383.315 75.2806 383.724 76.2127 383.524C77.0384 383.347 77.9664 382.608 78.9129 382.383C90.646 379.594 102.31 376.589 114.093 374.105C117.209 373.447 116.766 375.839 116.972 378.532C117.199 381.511 116.766 384.52 117.179 387.466C117.538 390.029 117.818 392.526 117.312 395.104C116.715 398.146 117.099 400.683 117.694 403.695C119.986 415.307 119.576 427.903 120.093 439.706C120.362 445.853 119.785 452.129 120.363 458.243C120.581 460.553 121.87 461.829 122.393 463.929C122.992 466.342 121.357 469.413 120.859 471.75C119.859 476.441 118.103 483.154 121.316 487.236C123.051 489.44 125.325 489.76 127.894 490.505C130.968 491.397 133.998 492.437 137.086 493.282C148.37 496.371 160.564 496.975 172.129 498.677C174.961 499.093 177.588 499.054 180.438 498.857C182.195 498.735 186.522 499.313 187.983 498.262C188.765 497.699 188.369 496.995 188.766 496.307C189.331 495.329 190.016 494.933 190.978 494.324C192.571 493.318 194.413 492.729 194.682 490.651C195.34 485.56 188.978 482.863 185.577 480.662C181.229 477.849 175.978 476.762 171.365 474.465C168.82 473.198 166.364 471.762 163.912 470.324C162.849 469.701 160.693 468.996 159.951 468.014C159.195 467.013 159.936 465.583 160.249 464.152C161.542 458.238 161.104 452.192 161.774 446.215C162.442 440.229 162.26 434.207 162.481 428.19C162.708 421.994 163.22 415.814 163.613 409.627C163.974 403.913 164.339 398.107 164.399 392.386C164.456 387.082 165.18 381.879 165.35 376.54C165.409 374.728 165.083 371.441 166.287 369.906C167.342 368.56 170.835 368.729 172.465 368.493C176.857 367.856 181.037 367.296 185.38 366.912C195.713 365.998 207.212 365.324 216.982 361.723C221.012 360.238 226.374 358.209 227.711 353.582C229.249 348.263 227.242 341.725 227.175 336.287C227.104 330.48 225.421 324.815 224.158 319.189C222.799 313.133 221.943 306.972 220.475 300.938C219.127 295.402 216.941 290.498 214.874 285.242C214.036 283.11 209.261 275.764 210.742 273.952C211.54 272.976 214.414 272.729 215.58 272.282C218.093 271.322 220.61 270.228 222.928 268.859C226.021 267.03 232.796 264.005 233.108 259.943C233.405 256.06 229.59 252.136 227.65 249.086C224.526 244.172 220.584 239.877 217.607 234.866C211.593 224.739 206.81 213.647 202.425 202.733C200.131 197.024 199.381 191.648 199.004 185.553C205.665 185.569 212.445 186.389 219.064 185.457C226.268 184.443 233.481 182.736 240.621 181.329C253.625 178.766 266.109 175.872 278.155 170.101C289.435 164.697 300.881 158.782 310.221 150.204C315.05 145.768 319.977 141.248 324.146 136.176C328.431 130.965 331.653 125.045 334.959 119.196C338.607 112.739 341.51 105.953 343.806 98.8913C344.268 97.4712 344.271 95.6632 344.862 94.322C345.529 92.8079 346.741 92.7681 348.008 91.9705C349.79 90.8482 350.976 87.093 347.884 86.5254Z" fill="black"/>
<path fill-rule="evenodd" clip-rule="evenodd" d="M192.797 14.249C194.321 15.5572 200.884 20.1652 203.003 19.0448C205.619 17.6616 201.478 13.495 200.363 12.4677C198.944 11.1609 193.874 7.20723 191.933 7.57424C188.053 8.30825 191.427 13.0716 192.797 14.249Z" fill="black"/>
<path fill-rule="evenodd" clip-rule="evenodd" d="M196.039 61.5425C196.9 59.8492 199.188 59.2266 200.246 57.5883C201.519 55.6183 202.104 53.8944 201.635 51.4788C198.376 52.5756 194.669 55.8956 192.489 58.4915C190.667 60.6612 188.079 65.1947 192.834 65.2064C192.793 64.5612 192.751 63.9146 192.709 63.2701C194.135 63.4774 195.392 62.8185 196.039 61.5425Z" fill="black"/>
<path fill-rule="evenodd" clip-rule="evenodd" d="M180.517 33.3704C182.617 33.9742 184.351 33.8887 186.497 33.9359C188.055 33.9706 190.183 34.8267 191.445 33.8618C190.325 33.2132 191.74 33.1773 191.463 32.5448C191.231 32.0175 190.789 32.1903 190.429 31.7634C189.147 30.2426 188.032 30.2612 185.999 29.9449C184.423 29.6986 182.106 29.1307 180.593 29.9138C179 30.7382 178.383 32.7571 180.517 33.3704Z" fill="black"/>
<path fill-rule="evenodd" clip-rule="evenodd" d="M210.419 80.0179C211.777 78.8785 213.259 75.5797 213.533 73.8775C213.641 73.2103 213.16 72.6996 213.217 72.2089C213.327 71.2733 215.25 69.4654 213.236 68.698C211.475 68.0261 209.819 73.2453 209.372 74.384C208.912 75.5488 207.662 77.818 208.045 78.9444C208.364 79.8792 209.501 80.7866 210.419 80.0179Z" fill="black"/>
<path fill-rule="evenodd" clip-rule="evenodd" d="M226.671 9.37766C227.901 8.23682 228.679 6.94292 228.551 5.37406C228.45 4.13823 227.525 -0.12256 226.483 0.00270513C223.024 0.420163 224.58 11.3205 226.671 9.37766Z" fill="black"/>
<path fill-rule="evenodd" clip-rule="evenodd" d="M153.657 199.873C153.372 198.831 152.337 192.461 150.548 192.895C149.189 193.224 150.601 198.83 150.664 199.568C150.796 201.111 147.831 201.06 146.452 200.851C144.266 200.521 144.442 199.24 144.115 197.253C143.992 196.502 143.519 193.108 141.952 194.351C140.894 195.191 141.65 199.376 141.738 200.331C142.044 203.639 142.403 209.286 144.369 212.289C145.153 213.488 145.858 214.079 146.682 212.543C147.515 210.988 145.629 206.25 145.299 204.66C146.855 204.812 151.334 204.307 152.271 205.924C153.127 207.399 151.758 211.614 154.504 211.956C156.133 212.159 155.838 210.272 155.681 208.821C155.353 205.776 154.459 202.813 153.657 199.873Z" fill="#F2AF29"/>
<path fill-rule="evenodd" clip-rule="evenodd" d="M157.829 198.399C156.025 199.214 158.29 211.093 160.929 210.71C164.009 210.262 159.548 197.623 157.829 198.399Z" fill="#F2AF29"/>
<path fill-rule="evenodd" clip-rule="evenodd" d="M155.819 194.465C155.596 197.14 159.072 198.137 159.237 195.23C159.363 192.987 156.053 191.653 155.819 194.465Z" fill="#F2AF29"/>
<path fill-rule="evenodd" clip-rule="evenodd" d="M136.739 123.546C138.325 129.46 152.77 131.976 150.824 124C149.849 120.007 145.779 123.554 142.937 123.09C141.098 122.789 135.621 119.376 136.739 123.546Z" fill="black"/>
<path fill-rule="evenodd" clip-rule="evenodd" d="M133.111 112.997C133.791 109.833 126.868 106.34 124.356 107.211C120.682 108.486 120.698 116.637 123.501 118.804C123.87 119.089 125 119.769 125.554 119.227C126.428 118.369 125.473 118.603 125.269 117.748C124.945 116.386 123.887 114.639 124.941 113.09C126.934 110.164 132.138 117.531 133.111 112.997Z" fill="black"/>
<path fill-rule="evenodd" clip-rule="evenodd" d="M112.004 128.357C109.508 128.217 107.462 132.091 111.134 131.766C111.837 131.704 113.348 131.527 113.756 130.788C114.431 129.564 113.102 128.419 112.004 128.357Z" fill="black"/>
<path fill-rule="evenodd" clip-rule="evenodd" d="M233.082 36.0092C232.227 34.7736 230.437 32.785 228.896 34.0244C227.53 35.1235 227.768 37.8362 228.292 39.1842C229.702 42.8133 233.033 46.0462 236.801 43.9553C235.492 41.3325 234.755 38.4282 233.082 36.0092Z" fill="#F2AF29"/>
</svg>
